<?xml version="1.0" standalone="no"?>
<!DOCTYPE svg PUBLIC "-//W3C//DTD SVG 20010904//EN"
 "http://www.w3.org/TR/2001/REC-SVG-20010904/DTD/svg10.dtd">
<svg version="1.0" xmlns="http://www.w3.org/2000/svg"
 width="286.000000pt" height="67.000000pt" viewBox="0 0 286.000000 67.000000"
 preserveAspectRatio="xMidYMid meet">

<g transform="translate(0.000000,67.000000) scale(0.100000,-0.100000)"
fill="#000000" stroke="none">
<path d="M0 335 l0 -335 1430 0 1430 0 0 335 0 335 -1430 0 -1430 0 0 -335z
m335 227 c-11 -2 -23 -9 -27 -16 -5 -6 -8 -3 -8 10 0 18 4 20 28 16 22 -5 24
-7 7 -10z m118 -28 c21 -14 40 -31 44 -39 3 -8 10 -12 17 -8 6 3 8 3 4 -2 -4
-4 0 -21 8 -37 9 -16 13 -37 9 -46 -5 -14 -9 -11 -19 13 -7 17 -11 36 -8 43 2
7 0 12 -5 10 -5 -2 -26 12 -48 31 -22 18 -34 30 -26 26 10 -6 12 -4 7 4 -5 7
-16 9 -28 5 -12 -3 -18 -2 -15 3 4 6 -4 8 -18 5 -21 -3 -24 -1 -19 13 8 21 44
13 97 -21z m-149 -59 c3 -8 1 -15 -3 -15 -5 0 -11 5 -13 11 -8 24 -69 -21 -89
-64 -10 -23 -19 -36 -19 -29 0 26 32 73 63 92 38 24 53 25 61 5z m-58 -49
c-31 -29 -36 -40 -36 -79 0 -35 6 -52 27 -76 15 -17 33 -31 40 -31 7 0 13 -4
13 -10 0 -14 -7 -13 -36 6 -34 23 -54 65 -54 115 0 33 6 47 34 75 19 19 37 34
41 34 3 0 -10 -15 -29 -34z m304 -87 c0 -31 -4 -48 -10 -44 -17 11 -12 95 7
95 2 0 3 -23 3 -51z m-323 -101 c21 -23 23 -27 7 -18 -29 18 -51 57 -58 105
-5 37 -5 37 8 -9 8 -26 27 -62 43 -78z m313 31 c0 -6 -4 -7 -10 -4 -5 3 -10
11 -10 16 0 6 5 7 10 4 6 -3 10 -11 10 -16z m-31 -61 c-27 -38 -40 -49 -52
-41 -4 3 -1 13 9 24 9 10 21 16 26 13 5 -3 8 2 6 12 -2 12 2 18 11 16 9 -2 11
3 7 15 -6 14 -4 15 5 6 9 -9 6 -19 -12 -45z m-90 28 c10 -12 7 -18 -18 -30
-32 -17 -107 -21 -129 -8 -7 5 14 7 45 4 44 -3 63 1 78 13 20 16 19 16 -5 10
-14 -4 -41 -9 -60 -11 l-35 -3 35 8 c19 4 44 12 55 19 11 6 21 12 21 12 1 0 7
-6 13 -14z m-283 -75 c68 -82 204 -105 308 -53 31 16 56 26 56 21 0 -18 -98
-54 -161 -57 -81 -5 -148 21 -205 79 -21 21 -35 39 -30 39 4 0 18 -13 32 -29z"/>
<path d="M470 495 c13 -14 26 -25 28 -25 3 0 -5 11 -18 25 -13 14 -26 25 -28
25 -3 0 5 -11 18 -25z"/>
</g>
</svg>
